<?xml version="1.0" encoding="UTF-8" standalone="no"?>
<!-- Created with Inkscape (http://www.inkscape.org/) -->

<svg
   xmlns:dc="http://purl.org/dc/elements/1.1/"
   xmlns:cc="http://creativecommons.org/ns#"
   xmlns:rdf="http://www.w3.org/1999/02/22-rdf-syntax-ns#"
   xmlns:svg="http://www.w3.org/2000/svg"
   xmlns="http://www.w3.org/2000/svg"
   xmlns:sodipodi="http://sodipodi.sourceforge.net/DTD/sodipodi-0.dtd"
   xmlns:inkscape="http://www.inkscape.org/namespaces/inkscape"
   width="115.12862mm"
   height="65.747536mm"
   viewBox="0 0 115.12862 65.747536"
   version="1.1"
   id="svg8"
   inkscape:version="0.92.3 (2405546, 2018-03-11)"
   sodipodi:docname="segments_correlation.svg">
  <sodipodi:namedview
     id="base"
     pagecolor="#ffffff"
     bordercolor="#666666"
     borderopacity="1.0"
     inkscape:pageopacity="0.0"
     inkscape:pageshadow="2"
     inkscape:zoom="2.8"
     inkscape:cx="192.96614"
     inkscape:cy="113.64216"
     inkscape:document-units="mm"
     inkscape:current-layer="layer1"
     showgrid="false"
     inkscape:window-width="1188"
     inkscape:window-height="736"
     inkscape:window-x="289"
     inkscape:window-y="189"
     inkscape:window-maximized="0"
     fit-margin-top="0"
     fit-margin-left="0"
     fit-margin-right="0"
     fit-margin-bottom="0" />
  <defs
     id="defs2">
    <marker
       inkscape:isstock="true"
       style="overflow:visible"
       id="TriangleOutM"
       refX="0"
       refY="0"
       orient="auto"
       inkscape:stockid="TriangleOutM">
      <path
         transform="scale(0.4)"
         style="fill:#d7871a;fill-opacity:1;fill-rule:evenodd;stroke:#d7871a;stroke-width:1.00000003pt;stroke-opacity:1"
         d="M 5.77,0 -2.88,5 V -5 Z"
         id="path962"
         inkscape:connector-curvature="0" />
    </marker>
    <marker
       inkscape:isstock="true"
       style="overflow:visible"
       id="Arrow2Send"
       refX="0"
       refY="0"
       orient="auto"
       inkscape:stockid="Arrow2Send">
      <path
         transform="matrix(-0.3,0,0,-0.3,0.69,0)"
         d="M 8.7185878,4.0337352 -2.2072895,0.01601326 8.7185884,-4.0017078 c -1.7454984,2.3720609 -1.7354408,5.6174519 -6e-7,8.035443 z"
         style="fill:#000000;fill-opacity:1;fill-rule:evenodd;stroke:#000000;stroke-width:0.625;stroke-linejoin:round;stroke-opacity:1"
         id="path850"
         inkscape:connector-curvature="0" />
    </marker>
    <marker
       inkscape:isstock="true"
       style="overflow:visible"
       id="Arrow1Send"
       refX="0"
       refY="0"
       orient="auto"
       inkscape:stockid="Arrow1Send">
      <path
         transform="matrix(-0.2,0,0,-0.2,-1.2,0)"
         style="fill:#000000;fill-opacity:1;fill-rule:evenodd;stroke:#000000;stroke-width:1.00000003pt;stroke-opacity:1"
         d="M 0,0 5,-5 -12.5,0 5,5 Z"
         id="path832"
         inkscape:connector-curvature="0" />
    </marker>
    <marker
       inkscape:isstock="true"
       style="overflow:visible"
       id="TriangleOutM-3"
       refX="0"
       refY="0"
       orient="auto"
       inkscape:stockid="TriangleOutM">
      <path
         transform="scale(0.4)"
         style="fill:#000000;fill-opacity:1;fill-rule:evenodd;stroke:#000000;stroke-width:1.00000003pt;stroke-opacity:1"
         d="M 5.77,0 -2.88,5 V -5 Z"
         id="path962-6"
         inkscape:connector-curvature="0" />
    </marker>
    <marker
       inkscape:isstock="true"
       style="overflow:visible"
       id="TriangleOutM-3-5"
       refX="0"
       refY="0"
       orient="auto"
       inkscape:stockid="TriangleOutM">
      <path
         transform="scale(0.4)"
         style="fill:#000000;fill-opacity:1;fill-rule:evenodd;stroke:#000000;stroke-width:1.00000003pt;stroke-opacity:1"
         d="M 5.77,0 -2.88,5 V -5 Z"
         id="path962-6-3"
         inkscape:connector-curvature="0" />
    </marker>
    <marker
       inkscape:isstock="true"
       style="overflow:visible"
       id="TriangleOutM-3-5-6"
       refX="0"
       refY="0"
       orient="auto"
       inkscape:stockid="TriangleOutM">
      <path
         transform="scale(0.4)"
         style="fill:#d7871a;fill-opacity:1;fill-rule:evenodd;stroke:#d7871a;stroke-width:1.00000003pt;stroke-opacity:1"
         d="M 5.77,0 -2.88,5 V -5 Z"
         id="path962-6-3-2"
         inkscape:connector-curvature="0" />
    </marker>
    <marker
       inkscape:isstock="true"
       style="overflow:visible"
       id="TriangleOutM-3-5-6-1"
       refX="0"
       refY="0"
       orient="auto"
       inkscape:stockid="TriangleOutM">
      <path
         transform="scale(0.4)"
         style="fill:#000000;fill-opacity:1;fill-rule:evenodd;stroke:#000000;stroke-width:1.00000003pt;stroke-opacity:1"
         d="M 5.77,0 -2.88,5 V -5 Z"
         id="path962-6-3-2-2"
         inkscape:connector-curvature="0" />
    </marker>
    <marker
       inkscape:isstock="true"
       style="overflow:visible"
       id="TriangleOutM-0"
       refX="0"
       refY="0"
       orient="auto"
       inkscape:stockid="TriangleOutM">
      <path
         transform="scale(0.4)"
         style="fill:#000000;fill-opacity:1;fill-rule:evenodd;stroke:#000000;stroke-width:1.00000003pt;stroke-opacity:1"
         d="M 5.77,0 -2.88,5 V -5 Z"
         id="path962-9"
         inkscape:connector-curvature="0" />
    </marker>
  </defs>
  <metadata
     id="metadata5">
    <rdf:RDF>
      <cc:Work
         rdf:about="">
        <dc:format>image/svg+xml</dc:format>
        <dc:type
           rdf:resource="http://purl.org/dc/dcmitype/StillImage" />
        <dc:title />
      </cc:Work>
    </rdf:RDF>
  </metadata>
  <g
     id="layer1"
     inkscape:groupmode="layer"
     inkscape:label="Layer 1"
     transform="translate(-17.90739,-32.428115)">
    <path
       inkscape:connector-curvature="0"
       id="path9764"
       d="M 83.370863,47.891412 V 67.956895"
       style="fill:none;fill-rule:evenodd;stroke:#000000;stroke-width:0.26458335px;stroke-linecap:butt;stroke-linejoin:miter;stroke-opacity:1" />
    <path
       style="fill:none;fill-rule:evenodd;stroke:#000000;stroke-width:0.26458332px;stroke-linecap:butt;stroke-linejoin:miter;stroke-opacity:1"
       d="m 68.414457,61.03949 c 1.659919,1.724835 3.063851,5.105878 2.976564,7.087055"
       id="path9687"
       inkscape:connector-curvature="0"
       sodipodi:nodetypes="cc" />
    <path
       sodipodi:nodetypes="cc"
       inkscape:connector-curvature="0"
       id="path815"
       d="M 59.257801,68.47439 81.575479,49.308825"
       style="fill:none;fill-opacity:1;fill-rule:evenodd;stroke:#d7871a;stroke-width:0.79374999;stroke-linecap:butt;stroke-linejoin:miter;stroke-miterlimit:4;stroke-dasharray:none;stroke-opacity:1;marker-end:url(#TriangleOutM)" />
    <path
       sodipodi:nodetypes="cc"
       inkscape:connector-curvature="0"
       id="path815-7-5-9"
       d="M 59.257801,68.47439 87.528605,68.287625"
       style="fill:none;fill-rule:evenodd;stroke:#d7871a;stroke-width:0.79374999;stroke-linecap:butt;stroke-linejoin:miter;stroke-miterlimit:4;stroke-dasharray:none;stroke-opacity:1;marker-end:url(#TriangleOutM-3-5-6)" />
    <g
       transform="matrix(0.48855022,0,0,0.48855022,24.630018,7.173155)"
       id="g8146"
       style="fill:#c57200;fill-opacity:1;stroke-width:2.04687238">
      <g
         style="font-style:normal;font-variant:normal;font-weight:normal;font-stretch:normal;letter-spacing:normal;word-spacing:normal;text-anchor:start;fill:#c57200;fill-opacity:1;fill-rule:evenodd;stroke:#000000;stroke-width:2.04687238;stroke-linecap:butt;stroke-linejoin:miter;stroke-miterlimit:10.43299961;stroke-dasharray:none;stroke-dashoffset:0;stroke-opacity:1"
         id="content"
         transform="matrix(0.3,0,0,-0.3,-52.5,222.75)"
         xml:space="preserve"
         stroke-miterlimit="10.433"
         font-style="normal"
         font-variant="normal"
         font-weight="normal"
         font-stretch="normal"
         font-size-adjust="none"
         letter-spacing="normal"
         word-spacing="normal"><path
           style="fill:#c57200;fill-opacity:1;stroke-width:0"
           inkscape:connector-curvature="0"
           d="m 465.63,423 v 5.62 l -8.27,-0.41 v -2.34 c 3.1,0 3.44,0 3.44,-1.94 v -15.39 h -3.44 v -2.34 c 1.75,0.05 3.99,0.16 6.28,0.16 1.9,0 5.08,0 6.88,-0.16 v 2.34 h -4.34 v 8.72 c 0,3.49 1.25,9.56 6.23,9.56 -0.05,-0.04 -0.95,-0.84 -0.95,-2.29 0,-2.03 1.59,-3.03 3.04,-3.03 1.44,0 3.04,1.04 3.04,3.03 0,2.64 -2.69,4.09 -5.29,4.09 -3.48,0 -5.46,-2.5 -6.62,-5.62 z"
           id="path8139" /><path
           style="fill:#c57200;fill-opacity:1;stroke-width:0"
           inkscape:connector-curvature="0"
           d="m 490.46,420.54 v 0.05 l -0.01,0.06 v 0.05 l -0.01,0.06 -0.01,0.05 -0.02,0.06 -0.02,0.05 -0.01,0.06 -0.03,0.06 -0.02,0.05 -0.03,0.06 -0.03,0.05 -0.03,0.06 -0.04,0.05 -0.04,0.05 -0.04,0.05 -0.04,0.05 -0.05,0.05 -0.05,0.04 -0.05,0.05 -0.06,0.04 -0.06,0.03 -0.06,0.04 -0.06,0.03 -0.07,0.03 -0.07,0.03 -0.08,0.02 -0.08,0.02 -0.08,0.01 -0.08,0.01 -0.09,0.01 h -0.09 c -0.94,0 -1.95,-0.91 -1.95,-1.92 0,-0.59 0.45,-1.33 1.4,-1.33 1,0 1.96,0.99 1.96,1.92 z"
           id="path8141" /><path
           style="fill:#c57200;fill-opacity:1;stroke-width:0"
           inkscape:connector-curvature="0"
           d="m 483.35,402.84 -0.06,-0.17 -0.05,-0.17 -0.03,-0.08 -0.02,-0.09 -0.03,-0.08 -0.02,-0.09 -0.02,-0.09 -0.02,-0.09 -0.02,-0.1 -0.02,-0.09 -0.01,-0.1 v -0.05 l -0.01,-0.05 v -0.06 -0.05 -0.05 -0.06 c 0,-1.64 1.39,-2.95 3.29,-2.95 3.49,0 5.03,4.79 5.03,5.33 0,0.45 -0.45,0.45 -0.56,0.45 -0.48,0 -0.53,-0.2 -0.67,-0.59 -0.8,-2.79 -2.33,-4.22 -3.69,-4.22 -0.7,0 -0.87,0.45 -0.87,1.22 0,0.79 0.25,1.46 0.56,2.23 0.34,0.94 0.73,1.87 1.11,2.78 0.31,0.84 1.58,4.02 1.72,4.44 0.09,0.34 0.2,0.76 0.2,1.11 0,1.64 -1.39,2.95 -3.31,2.95 -3.46,0 -5.05,-4.73 -5.05,-5.33 0,-0.45 0.49,-0.45 0.59,-0.45 0.49,0 0.52,0.17 0.63,0.56 0.91,3 2.44,4.25 3.72,4.25 0.56,0 0.87,-0.28 0.87,-1.22 0,-0.79 -0.2,-1.32 -1.07,-3.48 z"
           id="path8143" /></g>    </g>
    <g
       id="g8228"
       transform="matrix(0.48855022,0,0,0.48855022,48.1939,24.54092)"
       style="fill:#c57200;fill-opacity:1;stroke-width:2.04687238">
      <g
         word-spacing="normal"
         letter-spacing="normal"
         font-size-adjust="none"
         font-stretch="normal"
         font-weight="normal"
         font-variant="normal"
         font-style="normal"
         stroke-miterlimit="10.433"
         xml:space="preserve"
         transform="matrix(0.3,0,0,-0.3,-52.5,222.75)"
         id="g8226"
         style="font-style:normal;font-variant:normal;font-weight:normal;font-stretch:normal;letter-spacing:normal;word-spacing:normal;text-anchor:start;fill:#c57200;fill-opacity:1;fill-rule:evenodd;stroke:#000000;stroke-width:2.04687238;stroke-linecap:butt;stroke-linejoin:miter;stroke-miterlimit:10.43299961;stroke-dasharray:none;stroke-dashoffset:0;stroke-opacity:1"><path
           id="path8220"
           d="m 465.63,423 v 5.62 l -8.27,-0.41 v -2.34 c 3.1,0 3.44,0 3.44,-1.94 v -15.39 h -3.44 v -2.34 c 1.75,0.05 3.99,0.16 6.28,0.16 1.9,0 5.08,0 6.88,-0.16 v 2.34 h -4.34 v 8.72 c 0,3.49 1.25,9.56 6.23,9.56 -0.05,-0.04 -0.95,-0.84 -0.95,-2.29 0,-2.03 1.59,-3.03 3.04,-3.03 1.44,0 3.04,1.04 3.04,3.03 0,2.64 -2.69,4.09 -5.29,4.09 -3.48,0 -5.46,-2.5 -6.62,-5.62 z"
           inkscape:connector-curvature="0"
           style="fill:#c57200;fill-opacity:1;stroke-width:0" /><path
           id="path8222"
           d="m 494.46,420.54 v 0.06 l -0.01,0.06 v 0.05 l -0.01,0.06 -0.02,0.06 -0.01,0.06 -0.02,0.05 -0.02,0.06 -0.02,0.06 -0.03,0.05 -0.02,0.06 -0.04,0.05 -0.03,0.06 -0.04,0.05 -0.03,0.05 -0.05,0.05 -0.04,0.05 -0.05,0.04 -0.05,0.05 -0.05,0.04 -0.06,0.04 -0.06,0.03 -0.06,0.04 -0.06,0.03 -0.07,0.02 -0.07,0.03 -0.07,0.02 -0.07,0.02 -0.08,0.01 -0.08,0.01 -0.09,0.01 h -0.08 c -1.02,0 -1.96,-0.98 -1.96,-1.92 0,-0.56 0.43,-1.33 1.39,-1.33 0.94,0 1.96,0.91 1.96,1.92 z"
           inkscape:connector-curvature="0"
           style="fill:#c57200;fill-opacity:1;stroke-width:0" /><path
           id="path8224"
           d="m 487.07,397.06 -0.06,-0.23 -0.07,-0.22 -0.07,-0.22 -0.08,-0.21 -0.09,-0.21 -0.09,-0.21 -0.1,-0.21 -0.11,-0.2 -0.11,-0.19 -0.11,-0.19 -0.13,-0.19 -0.12,-0.18 -0.14,-0.17 -0.13,-0.17 -0.14,-0.16 -0.15,-0.15 -0.15,-0.15 -0.16,-0.14 -0.15,-0.13 -0.17,-0.13 -0.16,-0.11 -0.17,-0.11 -0.17,-0.1 -0.18,-0.09 -0.17,-0.08 -0.18,-0.07 -0.19,-0.06 -0.18,-0.05 -0.19,-0.04 -0.19,-0.03 -0.19,-0.02 h -0.19 c -0.45,0 -0.87,0.06 -1.26,0.2 0.9,0.42 1.18,1.25 1.18,1.78 0,0.83 -0.65,1.28 -1.36,1.28 -1.07,0 -1.98,-0.94 -1.98,-2.04 0,-1.33 1.36,-2.21 3.45,-2.21 2.1,0 6.16,1.25 7.25,5.5 l 3.13,12.49 c 0.11,0.37 0.17,0.68 0.17,1.22 0,1.9 -1.62,3.26 -3.72,3.26 -3.87,0 -6.09,-4.84 -6.09,-5.33 0,-0.45 0.48,-0.45 0.59,-0.45 0.41,0 0.45,0.11 0.69,0.62 0.87,2.04 2.69,4.19 4.7,4.19 0.88,0 1.19,-0.59 1.19,-1.7 0,-0.39 -0.06,-0.88 -0.11,-1.05 z"
           inkscape:connector-curvature="0"
           style="fill:#c57200;fill-opacity:1;stroke-width:0" /></g>    </g>
    <g
       transform="translate(39.826377,18.630189)"
       id="g9725">
      <g
         style="font-style:normal;font-variant:normal;font-weight:normal;font-stretch:normal;letter-spacing:normal;word-spacing:normal;text-anchor:start;fill:none;fill-opacity:1;fill-rule:evenodd;stroke:#000000;stroke-linecap:butt;stroke-linejoin:miter;stroke-miterlimit:10.43299961;stroke-dasharray:none;stroke-dashoffset:0;stroke-opacity:1"
         id="g9723"
         transform="matrix(0.09392505,0,0,-0.09392505,-16.436884,86.346465)"
         xml:space="preserve"
         stroke-miterlimit="10.433"
         font-style="normal"
         font-variant="normal"
         font-weight="normal"
         font-stretch="normal"
         font-size-adjust="none"
         letter-spacing="normal"
         word-spacing="normal"><path
           style="fill:#000000;stroke-width:0"
           inkscape:connector-curvature="0"
           d="m 478.19,431.11 v 0.31 l -0.01,0.34 -0.02,0.36 -0.02,0.37 -0.03,0.39 -0.04,0.39 -0.04,0.41 -0.06,0.41 -0.07,0.42 -0.07,0.43 -0.09,0.42 -0.1,0.43 -0.12,0.42 -0.12,0.42 -0.14,0.41 -0.16,0.41 -0.17,0.4 -0.18,0.38 -0.2,0.37 -0.22,0.36 -0.23,0.34 -0.25,0.32 -0.28,0.3 -0.29,0.27 -0.31,0.25 -0.16,0.12 -0.17,0.1 -0.17,0.1 -0.18,0.1 -0.18,0.08 -0.19,0.08 -0.19,0.07 -0.2,0.06 -0.21,0.05 -0.21,0.05 -0.22,0.03 -0.22,0.02 -0.23,0.02 h -0.23 l -0.05,-1.09 c 2.44,0 2.73,-3.19 2.73,-6.03 0,-2.44 -0.39,-4.99 -1.59,-9.92 h -10.41 c 0.85,3.2 1.85,7.18 3.83,10.72 1.36,2.43 3.19,5.23 5.44,5.23 l 0.05,1.09 c -6.92,0 -14.6,-14.04 -14.6,-25.45 0,-4.69 1.44,-10.22 5.99,-10.22 v 1.1 c -1.66,0 -2.71,1.45 -2.71,6.07 0,2.1 0.3,4.99 1.6,9.86 h 10.37 c -0.54,-2.28 -1.59,-6.51 -3.5,-10.11 -1.73,-3.39 -3.62,-5.82 -5.76,-5.82 v -1.1 c 7.01,0 14.59,14.3 14.59,25.46 z"
           id="path9721" /></g>    </g>
    <path
       inkscape:connector-curvature="0"
       id="path9766"
       d="M 59.200532,72.580118 H 83.355014"
       style="fill:none;fill-rule:evenodd;stroke:#009c2c;stroke-width:0.5291667;stroke-linecap:butt;stroke-linejoin:miter;stroke-miterlimit:4;stroke-dasharray:none;stroke-opacity:1" />
    <path
       inkscape:connector-curvature="0"
       id="path9777"
       d="m 59.233941,71.711492 v 1.670434"
       style="fill:none;fill-rule:evenodd;stroke:#009c2c;stroke-width:0.5291667;stroke-linecap:butt;stroke-linejoin:miter;stroke-miterlimit:4;stroke-dasharray:none;stroke-opacity:1" />
    <path
       inkscape:connector-curvature="0"
       id="path9777-8"
       d="m 83.277973,71.748217 v 1.670434"
       style="fill:none;fill-rule:evenodd;stroke:#009c2c;stroke-width:0.52916676;stroke-linecap:butt;stroke-linejoin:miter;stroke-miterlimit:4;stroke-dasharray:none;stroke-opacity:1" />
    <g
       id="g1325"
       transform="matrix(1.4330713,0,0,1.4330713,-71.77918,6.3301406)"
       style="fill:#007f24;fill-opacity:1;stroke-width:0.69780195">
      <g
         word-spacing="normal"
         letter-spacing="normal"
         font-size-adjust="none"
         font-stretch="normal"
         font-weight="normal"
         font-variant="normal"
         font-style="normal"
         stroke-miterlimit="10.433"
         xml:space="preserve"
         transform="matrix(0.09392505,0,0,-0.09392505,-16.436884,86.346465)"
         id="g1323"
         style="font-style:normal;font-variant:normal;font-weight:normal;font-stretch:normal;letter-spacing:normal;word-spacing:normal;text-anchor:start;fill:#007f24;fill-opacity:1;fill-rule:evenodd;stroke:#000000;stroke-width:0.69780195;stroke-linecap:butt;stroke-linejoin:miter;stroke-miterlimit:10.43299961;stroke-dasharray:none;stroke-dashoffset:0;stroke-opacity:1"><path
           id="path1297"
           d="m 1189.8,396.96 v 5.62 l -8.2,-0.4 v -2.35 c 3.1,0 3.4,0 3.4,-1.94 V 382.5 h -3.4 v -2.34 c 1.7,0.05 4,0.16 6.2,0.16 1.9,0 5.1,0 6.9,-0.16 v 2.34 h -4.3 v 8.72 c 0,3.49 1.2,9.57 6.2,9.57 0,-0.05 -0.9,-0.85 -0.9,-2.3 0,-2.03 1.5,-3.03 3,-3.03 1.4,0 3,1.04 3,3.03 0,2.64 -2.6,4.09 -5.3,4.09 -3.4,0 -5.4,-2.5 -6.6,-5.62 z"
           inkscape:connector-curvature="0"
           style="fill:#007f24;fill-opacity:1;stroke-width:0" /><path
           id="path1299"
           d="m 1214.7,394.38 v 0.05 0.06 l -0.1,0.05 v 0.06 0.05 0.06 0.05 0.06 0.06 l -0.1,0.05 v 0.06 0.05 l -0.1,0.06 v 0.05 0.05 l -0.1,0.05 v 0.05 l -0.1,0.05 v 0.04 l -0.1,0.05 v 0.04 l -0.1,0.03 -0.1,0.04 v 0.03 l -0.1,0.03 -0.1,0.03 v 0.02 l -0.1,0.02 -0.1,0.01 -0.1,0.01 -0.1,0.01 h -0.1 c -0.9,0 -1.9,-0.91 -1.9,-1.92 0,-0.59 0.5,-1.33 1.4,-1.33 1,0 2,0.99 2,1.92 z"
           inkscape:connector-curvature="0"
           style="fill:#007f24;fill-opacity:1;stroke-width:0" /><path
           id="path1301"
           d="m 1207.6,376.68 -0.1,-0.08 v -0.09 l -0.1,-0.17 v -0.08 -0.09 -0.08 l -0.1,-0.09 v -0.09 -0.09 -0.1 -0.09 -0.05 l -0.1,-0.05 v -0.05 -0.05 -0.06 -0.05 -0.05 -0.06 c 0,-1.64 1.4,-2.95 3.3,-2.95 3.5,0 5.1,4.79 5.1,5.33 0,0.45 -0.5,0.45 -0.6,0.45 -0.5,0 -0.5,-0.2 -0.7,-0.59 -0.8,-2.79 -2.3,-4.22 -3.7,-4.22 -0.7,0 -0.8,0.45 -0.8,1.22 0,0.79 0.2,1.46 0.5,2.23 0.4,0.94 0.8,1.87 1.1,2.78 0.4,0.84 1.6,4.02 1.8,4.44 0,0.34 0.2,0.76 0.2,1.11 0,1.64 -1.4,2.95 -3.3,2.95 -3.5,0 -5.1,-4.73 -5.1,-5.33 0,-0.45 0.5,-0.45 0.6,-0.45 0.5,0 0.5,0.17 0.6,0.56 0.9,3 2.5,4.25 3.7,4.25 0.6,0 0.9,-0.28 0.9,-1.22 0,-0.79 -0.2,-1.32 -1.1,-3.48 z"
           inkscape:connector-curvature="0"
           style="fill:#007f24;fill-opacity:1;stroke-width:0" /><path
           id="path1303"
           d="m 1240.5,392.61 v 0.14 0.13 0.13 0.13 l -0.1,0.13 v 0.13 0.12 l -0.1,0.12 v 0.12 l -0.1,0.11 -0.1,0.11 v 0.11 l -0.1,0.1 -0.1,0.1 -0.1,0.1 -0.1,0.09 v 0.09 l -0.1,0.08 -0.1,0.08 -0.1,0.07 -0.2,0.07 -0.1,0.06 -0.1,0.06 -0.1,0.06 -0.1,0.04 -0.1,0.04 -0.2,0.04 -0.1,0.03 -0.1,0.02 -0.1,0.02 -0.2,0.01 h -0.1 c -1.5,0 -2.7,-1.18 -2.7,-2.64 0,-1.43 1.2,-2.64 2.7,-2.64 1.4,0 2.6,1.21 2.6,2.64 z"
           inkscape:connector-curvature="0"
           style="fill:#007f24;fill-opacity:1;stroke-width:0" /><path
           id="path1305"
           d="m 1266,396.96 v 5.62 l -8.2,-0.4 v -2.35 c 3.1,0 3.4,0 3.4,-1.94 V 382.5 h -3.4 v -2.34 c 1.7,0.05 4,0.16 6.2,0.16 1.9,0 5.1,0 6.9,-0.16 v 2.34 h -4.3 v 8.72 c 0,3.49 1.2,9.57 6.2,9.57 0,-0.05 -0.9,-0.85 -0.9,-2.3 0,-2.03 1.5,-3.03 3,-3.03 1.4,0 3,1.04 3,3.03 0,2.64 -2.7,4.09 -5.2,4.09 -3.5,0 -5.5,-2.5 -6.7,-5.62 z"
           inkscape:connector-curvature="0"
           style="fill:#007f24;fill-opacity:1;stroke-width:0" /><path
           id="path1307"
           d="m 1294.9,394.38 v 0.06 0.06 l -0.1,0.05 v 0.06 0.06 0.06 0.05 0.06 0.06 l -0.1,0.05 v 0.06 0.05 l -0.1,0.06 v 0.05 0.05 l -0.1,0.05 v 0.05 l -0.1,0.04 v 0.05 l -0.1,0.04 v 0.04 l -0.1,0.03 -0.1,0.04 v 0.03 l -0.1,0.02 -0.1,0.03 v 0.02 l -0.1,0.02 -0.1,0.01 -0.1,0.01 -0.1,0.01 v 0 c -1.1,0 -2,-0.98 -2,-1.92 0,-0.56 0.4,-1.33 1.4,-1.33 0.9,0 2,0.91 2,1.92 z"
           inkscape:connector-curvature="0"
           style="fill:#007f24;fill-opacity:1;stroke-width:0" /><path
           id="path1309"
           d="m 1287.5,370.9 -0.1,-0.23 -0.1,-0.22 v -0.22 l -0.1,-0.21 -0.1,-0.21 -0.1,-0.21 -0.1,-0.21 -0.1,-0.2 -0.1,-0.19 -0.1,-0.19 -0.1,-0.19 -0.2,-0.18 -0.1,-0.17 -0.1,-0.17 -0.2,-0.16 -0.1,-0.15 -0.2,-0.15 -0.1,-0.14 -0.2,-0.13 -0.2,-0.13 -0.1,-0.11 -0.2,-0.11 -0.2,-0.1 -0.1,-0.09 -0.2,-0.08 -0.2,-0.07 -0.2,-0.06 -0.2,-0.05 -0.1,-0.04 -0.2,-0.03 -0.2,-0.02 h -0.2 c -0.5,0 -0.9,0.06 -1.3,0.2 0.9,0.42 1.2,1.25 1.2,1.78 0,0.83 -0.7,1.28 -1.4,1.28 -1,0 -1.9,-0.94 -1.9,-2.04 0,-1.33 1.3,-2.21 3.4,-2.21 2.1,0 6.2,1.25 7.3,5.5 l 3.1,12.49 c 0.1,0.37 0.2,0.68 0.2,1.22 0,1.9 -1.7,3.26 -3.8,3.26 -3.8,0 -6,-4.84 -6,-5.33 0,-0.45 0.4,-0.45 0.5,-0.45 0.5,0 0.5,0.11 0.7,0.62 0.9,2.04 2.7,4.19 4.7,4.19 0.9,0 1.2,-0.59 1.2,-1.7 0,-0.39 0,-0.88 -0.1,-1.05 z"
           inkscape:connector-curvature="0"
           style="fill:#007f24;fill-opacity:1;stroke-width:0" /><polyline
           id="polyline1311"
           points="1180,358 1300.8,358 1300.8,360.04 1180,360.04 "
           style="fill:#007f24;fill-opacity:1;fill-rule:nonzero;stroke-width:0" /><path
           id="path1313"
           d="m 1211.9,347.82 v 0.16 0.17 0.16 0.08 0.08 0.08 l -0.1,0.07 v 0.08 0.07 0.07 0.07 0.07 0.06 l -0.1,0.06 v 0.06 0.06 l -0.1,0.05 v 0.05 0.04 l -0.1,0.05 v 0.03 l -0.1,0.02 v 0.02 0.02 l -0.1,0.01 v 0.01 0.02 l -0.1,0.01 v 0.01 0.01 l -0.1,0.01 v 0 0.01 h -0.1 v 0.01 h -0.1 v 0 c -1,0 -1,-0.89 -1,-1.78 v -46.24 c 0,-0.9 0,-1.79 1,-1.79 1,0 1,0.89 1,1.79 z"
           inkscape:connector-curvature="0"
           style="fill:#007f24;fill-opacity:1;stroke-width:0" /><path
           id="path1315"
           d="m 1227.9,329.04 v 5.62 l -8.3,-0.41 v -2.34 c 3.1,0 3.4,0 3.4,-1.94 v -15.39 h -3.4 v -2.34 c 1.7,0.05 4,0.15 6.3,0.15 1.9,0 5.1,0 6.9,-0.15 v 2.34 h -4.4 v 8.72 c 0,3.49 1.3,9.56 6.3,9.56 -0.1,-0.04 -1,-0.84 -1,-2.29 0,-2.03 1.6,-3.03 3,-3.03 1.5,0 3.1,1.04 3.1,3.03 0,2.64 -2.7,4.09 -5.3,4.09 -3.5,0 -5.5,-2.5 -6.6,-5.62 z"
           inkscape:connector-curvature="0"
           style="fill:#007f24;fill-opacity:1;stroke-width:0" /><path
           id="path1317"
           d="m 1256.7,326.58 v 0.06 0.05 0.06 0.06 0.06 0.06 l -0.1,0.05 v 0.06 0.06 0.05 l -0.1,0.06 v 0.05 0.06 l -0.1,0.05 v 0.05 0.05 l -0.1,0.05 v 0.04 l -0.1,0.05 v 0.04 l -0.1,0.04 -0.1,0.03 v 0.04 l -0.1,0.03 -0.1,0.02 v 0.03 l -0.1,0.02 -0.1,0.02 v 0.01 l -0.1,0.01 -0.1,0.01 h -0.1 c -1,0 -2,-0.98 -2,-1.92 0,-0.56 0.5,-1.33 1.4,-1.33 1,0 2,0.91 2,1.92 z"
           inkscape:connector-curvature="0"
           style="fill:#007f24;fill-opacity:1;stroke-width:0" /><path
           id="path1319"
           d="m 1249.3,303.1 -0.1,-0.23 v -0.22 l -0.1,-0.22 -0.1,-0.21 -0.1,-0.22 -0.1,-0.2 -0.1,-0.21 -0.1,-0.2 -0.1,-0.19 -0.1,-0.19 -0.1,-0.19 -0.1,-0.18 -0.2,-0.17 -0.1,-0.17 -0.1,-0.16 -0.2,-0.16 -0.1,-0.14 -0.2,-0.14 -0.2,-0.14 -0.1,-0.12 -0.2,-0.12 -0.2,-0.1 -0.1,-0.1 -0.2,-0.09 -0.2,-0.08 -0.2,-0.07 -0.1,-0.06 -0.2,-0.05 -0.2,-0.04 -0.2,-0.03 -0.2,-0.02 h -0.2 c -0.4,0 -0.9,0.06 -1.2,0.2 0.9,0.42 1.1,1.25 1.1,1.78 0,0.83 -0.6,1.28 -1.3,1.28 -1.1,0 -2,-0.94 -2,-2.05 0,-1.32 1.4,-2.2 3.4,-2.2 2.1,0 6.2,1.25 7.3,5.5 l 3.1,12.49 c 0.1,0.37 0.2,0.68 0.2,1.21 0,1.91 -1.6,3.27 -3.7,3.27 -3.9,0 -6.1,-4.84 -6.1,-5.33 0,-0.45 0.5,-0.45 0.6,-0.45 0.4,0 0.4,0.11 0.7,0.62 0.8,2.04 2.7,4.19 4.7,4.19 0.8,0 1.2,-0.59 1.2,-1.7 0,-0.39 -0.1,-0.88 -0.1,-1.05 z"
           inkscape:connector-curvature="0"
           style="fill:#007f24;fill-opacity:1;stroke-width:0" /><path
           id="path1321"
           d="m 1270.3,347.82 v 0.16 0.17 0.16 0.08 0.08 0.08 0.07 0.08 0.07 0.07 l -0.1,0.07 v 0.07 0.06 0.06 l -0.1,0.06 v 0.06 0.05 l -0.1,0.05 v 0.04 l -0.1,0.05 v 0.03 0.02 l -0.1,0.02 v 0.02 0.01 0.01 l -0.1,0.02 v 0.01 0.01 l -0.1,0.01 v 0.01 h -0.1 v 0.01 0 l -0.1,0.01 v 0 h -0.1 c -1,0 -1,-0.89 -1,-1.78 v -46.24 c 0,-0.9 0,-1.79 1,-1.79 1,0 1,0.89 1,1.79 z"
           inkscape:connector-curvature="0"
           style="fill:#007f24;fill-opacity:1;stroke-width:0" /></g>    </g>
  </g>
</svg>
